<?xml version="1.0" encoding="UTF-8" standalone="no"?>
<!DOCTYPE svg PUBLIC "-//W3C//DTD SVG 1.1//EN"
 "http://www.w3.org/Graphics/SVG/1.1/DTD/svg11.dtd">
<!-- Generated by graphviz version 2.38.0 (20140413.2041)
 -->
<!-- Title: snakemake_dag Pages: 1 -->
<svg width="1123pt" height="476pt"
 viewBox="0.00 0.00 1123.00 476.00" xmlns="http://www.w3.org/2000/svg" xmlns:xlink="http://www.w3.org/1999/xlink">
<g id="graph0" class="graph" transform="scale(1 1) rotate(0) translate(4 472)">
<title>snakemake_dag</title>
<polygon fill="white" stroke="none" points="-4,4 -4,-472 1119,-472 1119,4 -4,4"/>
<!-- 0 -->
<g id="node1" class="node"><title>0</title>
<path fill="none" stroke="#56d88a" stroke-width="2" stroke-dasharray="5,2" d="M588,-108C588,-108 527,-108 527,-108 521,-108 515,-102 515,-96 515,-96 515,-84 515,-84 515,-78 521,-72 527,-72 527,-72 588,-72 588,-72 594,-72 600,-78 600,-84 600,-84 600,-96 600,-96 600,-102 594,-108 588,-108"/>
<text text-anchor="middle" x="557.5" y="-87.5" font-family="sans" font-size="10.00">filter_matrices</text>
</g>
<!-- 23 -->
<g id="node24" class="node"><title>23</title>
<path fill="none" stroke="#d88d56" stroke-width="2" stroke-dasharray="5,2" d="M581,-36C581,-36 534,-36 534,-36 528,-36 522,-30 522,-24 522,-24 522,-12 522,-12 522,-6 528,-0 534,-0 534,-0 581,-0 581,-0 587,-0 593,-6 593,-12 593,-12 593,-24 593,-24 593,-30 587,-36 581,-36"/>
<text text-anchor="middle" x="557.5" y="-15.5" font-family="sans" font-size="10.00">run_clomial</text>
</g>
<!-- 0&#45;&gt;23 -->
<g id="edge23" class="edge"><title>0&#45;&gt;23</title>
<path fill="none" stroke="grey" stroke-width="2" d="M557.5,-71.6966C557.5,-63.9827 557.5,-54.7125 557.5,-46.1124"/>
<polygon fill="grey" stroke="grey" stroke-width="2" points="561,-46.1043 557.5,-36.1043 554,-46.1044 561,-46.1043"/>
</g>
<!-- 1 -->
<g id="node2" class="node"><title>1</title>
<path fill="none" stroke="#59d856" stroke-width="2" stroke-dasharray="5,2" d="M989.5,-468C989.5,-468 949.5,-468 949.5,-468 943.5,-468 937.5,-462 937.5,-456 937.5,-456 937.5,-444 937.5,-444 937.5,-438 943.5,-432 949.5,-432 949.5,-432 989.5,-432 989.5,-432 995.5,-432 1001.5,-438 1001.5,-444 1001.5,-444 1001.5,-456 1001.5,-456 1001.5,-462 995.5,-468 989.5,-468"/>
<text text-anchor="middle" x="969.5" y="-453" font-family="sans" font-size="10.00">bwa_map</text>
<text text-anchor="middle" x="969.5" y="-442" font-family="sans" font-size="10.00">sample: 9</text>
</g>
<!-- 25 -->
<g id="node26" class="node"><title>25</title>
<path fill="none" stroke="#d85656" stroke-width="2" stroke-dasharray="5,2" d="M1000,-396C1000,-396 939,-396 939,-396 933,-396 927,-390 927,-384 927,-384 927,-372 927,-372 927,-366 933,-360 939,-360 939,-360 1000,-360 1000,-360 1006,-360 1012,-366 1012,-372 1012,-372 1012,-384 1012,-384 1012,-390 1006,-396 1000,-396"/>
<text text-anchor="middle" x="969.5" y="-375.5" font-family="sans" font-size="10.00">samtools_sort</text>
</g>
<!-- 1&#45;&gt;25 -->
<g id="edge25" class="edge"><title>1&#45;&gt;25</title>
<path fill="none" stroke="grey" stroke-width="2" d="M969.5,-431.697C969.5,-423.983 969.5,-414.712 969.5,-406.112"/>
<polygon fill="grey" stroke="grey" stroke-width="2" points="973,-406.104 969.5,-396.104 966,-406.104 973,-406.104"/>
</g>
<!-- 2 -->
<g id="node3" class="node"><title>2</title>
<path fill="none" stroke="#59d856" stroke-width="2" stroke-dasharray="5,2" d="M62.5,-468C62.5,-468 22.5,-468 22.5,-468 16.5,-468 10.5,-462 10.5,-456 10.5,-456 10.5,-444 10.5,-444 10.5,-438 16.5,-432 22.5,-432 22.5,-432 62.5,-432 62.5,-432 68.5,-432 74.5,-438 74.5,-444 74.5,-444 74.5,-456 74.5,-456 74.5,-462 68.5,-468 62.5,-468"/>
<text text-anchor="middle" x="42.5" y="-453" font-family="sans" font-size="10.00">bwa_map</text>
<text text-anchor="middle" x="42.5" y="-442" font-family="sans" font-size="10.00">sample: 2</text>
</g>
<!-- 8 -->
<g id="node9" class="node"><title>8</title>
<path fill="none" stroke="#d85656" stroke-width="2" stroke-dasharray="5,2" d="M73,-396C73,-396 12,-396 12,-396 6,-396 0,-390 0,-384 0,-384 0,-372 0,-372 0,-366 6,-360 12,-360 12,-360 73,-360 73,-360 79,-360 85,-366 85,-372 85,-372 85,-384 85,-384 85,-390 79,-396 73,-396"/>
<text text-anchor="middle" x="42.5" y="-375.5" font-family="sans" font-size="10.00">samtools_sort</text>
</g>
<!-- 2&#45;&gt;8 -->
<g id="edge2" class="edge"><title>2&#45;&gt;8</title>
<path fill="none" stroke="grey" stroke-width="2" d="M42.5,-431.697C42.5,-423.983 42.5,-414.712 42.5,-406.112"/>
<polygon fill="grey" stroke="grey" stroke-width="2" points="46.0001,-406.104 42.5,-396.104 39.0001,-406.104 46.0001,-406.104"/>
</g>
<!-- 3 -->
<g id="node4" class="node"><title>3</title>
<path fill="none" stroke="#59d856" stroke-width="2" stroke-dasharray="5,2" d="M371.5,-468C371.5,-468 331.5,-468 331.5,-468 325.5,-468 319.5,-462 319.5,-456 319.5,-456 319.5,-444 319.5,-444 319.5,-438 325.5,-432 331.5,-432 331.5,-432 371.5,-432 371.5,-432 377.5,-432 383.5,-438 383.5,-444 383.5,-444 383.5,-456 383.5,-456 383.5,-462 377.5,-468 371.5,-468"/>
<text text-anchor="middle" x="351.5" y="-453" font-family="sans" font-size="10.00">bwa_map</text>
<text text-anchor="middle" x="351.5" y="-442" font-family="sans" font-size="10.00">sample: 8</text>
</g>
<!-- 14 -->
<g id="node15" class="node"><title>14</title>
<path fill="none" stroke="#d85656" stroke-width="2" stroke-dasharray="5,2" d="M382,-396C382,-396 321,-396 321,-396 315,-396 309,-390 309,-384 309,-384 309,-372 309,-372 309,-366 315,-360 321,-360 321,-360 382,-360 382,-360 388,-360 394,-366 394,-372 394,-372 394,-384 394,-384 394,-390 388,-396 382,-396"/>
<text text-anchor="middle" x="351.5" y="-375.5" font-family="sans" font-size="10.00">samtools_sort</text>
</g>
<!-- 3&#45;&gt;14 -->
<g id="edge6" class="edge"><title>3&#45;&gt;14</title>
<path fill="none" stroke="grey" stroke-width="2" d="M351.5,-431.697C351.5,-423.983 351.5,-414.712 351.5,-406.112"/>
<polygon fill="grey" stroke="grey" stroke-width="2" points="355,-406.104 351.5,-396.104 348,-406.104 355,-406.104"/>
</g>
<!-- 4 -->
<g id="node5" class="node"><title>4</title>
<path fill="none" stroke="#59d856" stroke-width="2" stroke-dasharray="5,2" d="M783.5,-468C783.5,-468 743.5,-468 743.5,-468 737.5,-468 731.5,-462 731.5,-456 731.5,-456 731.5,-444 731.5,-444 731.5,-438 737.5,-432 743.5,-432 743.5,-432 783.5,-432 783.5,-432 789.5,-432 795.5,-438 795.5,-444 795.5,-444 795.5,-456 795.5,-456 795.5,-462 789.5,-468 783.5,-468"/>
<text text-anchor="middle" x="763.5" y="-453" font-family="sans" font-size="10.00">bwa_map</text>
<text text-anchor="middle" x="763.5" y="-442" font-family="sans" font-size="10.00">sample: 6</text>
</g>
<!-- 22 -->
<g id="node23" class="node"><title>22</title>
<path fill="none" stroke="#d85656" stroke-width="2" stroke-dasharray="5,2" d="M794,-396C794,-396 733,-396 733,-396 727,-396 721,-390 721,-384 721,-384 721,-372 721,-372 721,-366 727,-360 733,-360 733,-360 794,-360 794,-360 800,-360 806,-366 806,-372 806,-372 806,-384 806,-384 806,-390 800,-396 794,-396"/>
<text text-anchor="middle" x="763.5" y="-375.5" font-family="sans" font-size="10.00">samtools_sort</text>
</g>
<!-- 4&#45;&gt;22 -->
<g id="edge22" class="edge"><title>4&#45;&gt;22</title>
<path fill="none" stroke="grey" stroke-width="2" d="M763.5,-431.697C763.5,-423.983 763.5,-414.712 763.5,-406.112"/>
<polygon fill="grey" stroke="grey" stroke-width="2" points="767,-406.104 763.5,-396.104 760,-406.104 767,-406.104"/>
</g>
<!-- 5 -->
<g id="node6" class="node"><title>5</title>
<path fill="none" stroke="#59d856" stroke-width="2" stroke-dasharray="5,2" d="M477.5,-468C477.5,-468 431.5,-468 431.5,-468 425.5,-468 419.5,-462 419.5,-456 419.5,-456 419.5,-444 419.5,-444 419.5,-438 425.5,-432 431.5,-432 431.5,-432 477.5,-432 477.5,-432 483.5,-432 489.5,-438 489.5,-444 489.5,-444 489.5,-456 489.5,-456 489.5,-462 483.5,-468 477.5,-468"/>
<text text-anchor="middle" x="454.5" y="-453" font-family="sans" font-size="10.00">bwa_map</text>
<text text-anchor="middle" x="454.5" y="-442" font-family="sans" font-size="10.00">sample: 11</text>
</g>
<!-- 18 -->
<g id="node19" class="node"><title>18</title>
<path fill="none" stroke="#d85656" stroke-width="2" stroke-dasharray="5,2" d="M485,-396C485,-396 424,-396 424,-396 418,-396 412,-390 412,-384 412,-384 412,-372 412,-372 412,-366 418,-360 424,-360 424,-360 485,-360 485,-360 491,-360 497,-366 497,-372 497,-372 497,-384 497,-384 497,-390 491,-396 485,-396"/>
<text text-anchor="middle" x="454.5" y="-375.5" font-family="sans" font-size="10.00">samtools_sort</text>
</g>
<!-- 5&#45;&gt;18 -->
<g id="edge8" class="edge"><title>5&#45;&gt;18</title>
<path fill="none" stroke="grey" stroke-width="2" d="M454.5,-431.697C454.5,-423.983 454.5,-414.712 454.5,-406.112"/>
<polygon fill="grey" stroke="grey" stroke-width="2" points="458,-406.104 454.5,-396.104 451,-406.104 458,-406.104"/>
</g>
<!-- 6 -->
<g id="node7" class="node"><title>6</title>
<path fill="none" stroke="#59d856" stroke-width="2" stroke-dasharray="5,2" d="M577.5,-468C577.5,-468 537.5,-468 537.5,-468 531.5,-468 525.5,-462 525.5,-456 525.5,-456 525.5,-444 525.5,-444 525.5,-438 531.5,-432 537.5,-432 537.5,-432 577.5,-432 577.5,-432 583.5,-432 589.5,-438 589.5,-444 589.5,-444 589.5,-456 589.5,-456 589.5,-462 583.5,-468 577.5,-468"/>
<text text-anchor="middle" x="557.5" y="-453" font-family="sans" font-size="10.00">bwa_map</text>
<text text-anchor="middle" x="557.5" y="-442" font-family="sans" font-size="10.00">sample: 1</text>
</g>
<!-- 19 -->
<g id="node20" class="node"><title>19</title>
<path fill="none" stroke="#d85656" stroke-width="2" stroke-dasharray="5,2" d="M588,-396C588,-396 527,-396 527,-396 521,-396 515,-390 515,-384 515,-384 515,-372 515,-372 515,-366 521,-360 527,-360 527,-360 588,-360 588,-360 594,-360 600,-366 600,-372 600,-372 600,-384 600,-384 600,-390 594,-396 588,-396"/>
<text text-anchor="middle" x="557.5" y="-375.5" font-family="sans" font-size="10.00">samtools_sort</text>
</g>
<!-- 6&#45;&gt;19 -->
<g id="edge9" class="edge"><title>6&#45;&gt;19</title>
<path fill="none" stroke="grey" stroke-width="2" d="M557.5,-431.697C557.5,-423.983 557.5,-414.712 557.5,-406.112"/>
<polygon fill="grey" stroke="grey" stroke-width="2" points="561,-406.104 557.5,-396.104 554,-406.104 561,-406.104"/>
</g>
<!-- 7 -->
<g id="node8" class="node"><title>7</title>
<path fill="none" stroke="#59d856" stroke-width="2" stroke-dasharray="5,2" d="M268.5,-468C268.5,-468 228.5,-468 228.5,-468 222.5,-468 216.5,-462 216.5,-456 216.5,-456 216.5,-444 216.5,-444 216.5,-438 222.5,-432 228.5,-432 228.5,-432 268.5,-432 268.5,-432 274.5,-432 280.5,-438 280.5,-444 280.5,-444 280.5,-456 280.5,-456 280.5,-462 274.5,-468 268.5,-468"/>
<text text-anchor="middle" x="248.5" y="-453" font-family="sans" font-size="10.00">bwa_map</text>
<text text-anchor="middle" x="248.5" y="-442" font-family="sans" font-size="10.00">sample: 5</text>
</g>
<!-- 11 -->
<g id="node12" class="node"><title>11</title>
<path fill="none" stroke="#d85656" stroke-width="2" stroke-dasharray="5,2" d="M279,-396C279,-396 218,-396 218,-396 212,-396 206,-390 206,-384 206,-384 206,-372 206,-372 206,-366 212,-360 218,-360 218,-360 279,-360 279,-360 285,-360 291,-366 291,-372 291,-372 291,-384 291,-384 291,-390 285,-396 279,-396"/>
<text text-anchor="middle" x="248.5" y="-375.5" font-family="sans" font-size="10.00">samtools_sort</text>
</g>
<!-- 7&#45;&gt;11 -->
<g id="edge5" class="edge"><title>7&#45;&gt;11</title>
<path fill="none" stroke="grey" stroke-width="2" d="M248.5,-431.697C248.5,-423.983 248.5,-414.712 248.5,-406.112"/>
<polygon fill="grey" stroke="grey" stroke-width="2" points="252,-406.104 248.5,-396.104 245,-406.104 252,-406.104"/>
</g>
<!-- 20 -->
<g id="node21" class="node"><title>20</title>
<path fill="none" stroke="#56d8c1" stroke-width="2" stroke-dasharray="5,2" d="M597.5,-324C597.5,-324 517.5,-324 517.5,-324 511.5,-324 505.5,-318 505.5,-312 505.5,-312 505.5,-300 505.5,-300 505.5,-294 511.5,-288 517.5,-288 517.5,-288 597.5,-288 597.5,-288 603.5,-288 609.5,-294 609.5,-300 609.5,-300 609.5,-312 609.5,-312 609.5,-318 603.5,-324 597.5,-324"/>
<text text-anchor="middle" x="557.5" y="-303.5" font-family="sans" font-size="10.00">samtools_mpileup</text>
</g>
<!-- 8&#45;&gt;20 -->
<g id="edge18" class="edge"><title>8&#45;&gt;20</title>
<path fill="none" stroke="grey" stroke-width="2" d="M85.1711,-362.06C87.9727,-361.301 90.7662,-360.605 93.5,-360 235.283,-328.631 405.783,-315.213 495.426,-309.982"/>
<polygon fill="grey" stroke="grey" stroke-width="2" points="495.638,-313.476 505.423,-309.414 495.241,-306.487 495.638,-313.476"/>
</g>
<!-- 9 -->
<g id="node10" class="node"><title>9</title>
<path fill="none" stroke="#d85656" stroke-width="2" stroke-dasharray="5,2" d="M176,-396C176,-396 115,-396 115,-396 109,-396 103,-390 103,-384 103,-384 103,-372 103,-372 103,-366 109,-360 115,-360 115,-360 176,-360 176,-360 182,-360 188,-366 188,-372 188,-372 188,-384 188,-384 188,-390 182,-396 176,-396"/>
<text text-anchor="middle" x="145.5" y="-375.5" font-family="sans" font-size="10.00">samtools_sort</text>
</g>
<!-- 9&#45;&gt;20 -->
<g id="edge11" class="edge"><title>9&#45;&gt;20</title>
<path fill="none" stroke="grey" stroke-width="2" d="M188.195,-362.162C190.99,-361.379 193.776,-360.649 196.5,-360 299.725,-335.421 422.428,-320.315 494.922,-312.809"/>
<polygon fill="grey" stroke="grey" stroke-width="2" points="495.651,-316.253 505.245,-311.757 494.941,-309.289 495.651,-316.253"/>
</g>
<!-- 10 -->
<g id="node11" class="node"><title>10</title>
<path fill="none" stroke="#88d856" stroke-width="2" stroke-dasharray="5,2" d="M591,-180C591,-180 524,-180 524,-180 518,-180 512,-174 512,-168 512,-168 512,-156 512,-156 512,-150 518,-144 524,-144 524,-144 591,-144 591,-144 597,-144 603,-150 603,-156 603,-156 603,-168 603,-168 603,-174 597,-180 591,-180"/>
<text text-anchor="middle" x="557.5" y="-159.5" font-family="sans" font-size="10.00">make_matrices</text>
</g>
<!-- 10&#45;&gt;0 -->
<g id="edge1" class="edge"><title>10&#45;&gt;0</title>
<path fill="none" stroke="grey" stroke-width="2" d="M557.5,-143.697C557.5,-135.983 557.5,-126.712 557.5,-118.112"/>
<polygon fill="grey" stroke="grey" stroke-width="2" points="561,-118.104 557.5,-108.104 554,-118.104 561,-118.104"/>
</g>
<!-- 11&#45;&gt;20 -->
<g id="edge19" class="edge"><title>11&#45;&gt;20</title>
<path fill="none" stroke="grey" stroke-width="2" d="M291.235,-362.607C294.358,-361.685 297.471,-360.805 300.5,-360 366.338,-342.509 442.947,-327.368 495.281,-317.8"/>
<polygon fill="grey" stroke="grey" stroke-width="2" points="496.199,-321.191 505.414,-315.962 494.949,-314.303 496.199,-321.191"/>
</g>
<!-- 12 -->
<g id="node13" class="node"><title>12</title>
<path fill="none" stroke="#59d856" stroke-width="2" stroke-dasharray="5,2" d="M1092.5,-468C1092.5,-468 1052.5,-468 1052.5,-468 1046.5,-468 1040.5,-462 1040.5,-456 1040.5,-456 1040.5,-444 1040.5,-444 1040.5,-438 1046.5,-432 1052.5,-432 1052.5,-432 1092.5,-432 1092.5,-432 1098.5,-432 1104.5,-438 1104.5,-444 1104.5,-444 1104.5,-456 1104.5,-456 1104.5,-462 1098.5,-468 1092.5,-468"/>
<text text-anchor="middle" x="1072.5" y="-453" font-family="sans" font-size="10.00">bwa_map</text>
<text text-anchor="middle" x="1072.5" y="-442" font-family="sans" font-size="10.00">sample: 7</text>
</g>
<!-- 26 -->
<g id="node27" class="node"><title>26</title>
<path fill="none" stroke="#d85656" stroke-width="2" stroke-dasharray="5,2" d="M1103,-396C1103,-396 1042,-396 1042,-396 1036,-396 1030,-390 1030,-384 1030,-384 1030,-372 1030,-372 1030,-366 1036,-360 1042,-360 1042,-360 1103,-360 1103,-360 1109,-360 1115,-366 1115,-372 1115,-372 1115,-384 1115,-384 1115,-390 1109,-396 1103,-396"/>
<text text-anchor="middle" x="1072.5" y="-375.5" font-family="sans" font-size="10.00">samtools_sort</text>
</g>
<!-- 12&#45;&gt;26 -->
<g id="edge26" class="edge"><title>12&#45;&gt;26</title>
<path fill="none" stroke="grey" stroke-width="2" d="M1072.5,-431.697C1072.5,-423.983 1072.5,-414.712 1072.5,-406.112"/>
<polygon fill="grey" stroke="grey" stroke-width="2" points="1076,-406.104 1072.5,-396.104 1069,-406.104 1076,-406.104"/>
</g>
<!-- 13 -->
<g id="node14" class="node"><title>13</title>
<path fill="none" stroke="#59d856" stroke-width="2" stroke-dasharray="5,2" d="M886.5,-468C886.5,-468 846.5,-468 846.5,-468 840.5,-468 834.5,-462 834.5,-456 834.5,-456 834.5,-444 834.5,-444 834.5,-438 840.5,-432 846.5,-432 846.5,-432 886.5,-432 886.5,-432 892.5,-432 898.5,-438 898.5,-444 898.5,-444 898.5,-456 898.5,-456 898.5,-462 892.5,-468 886.5,-468"/>
<text text-anchor="middle" x="866.5" y="-453" font-family="sans" font-size="10.00">bwa_map</text>
<text text-anchor="middle" x="866.5" y="-442" font-family="sans" font-size="10.00">sample: 3</text>
</g>
<!-- 24 -->
<g id="node25" class="node"><title>24</title>
<path fill="none" stroke="#d85656" stroke-width="2" stroke-dasharray="5,2" d="M897,-396C897,-396 836,-396 836,-396 830,-396 824,-390 824,-384 824,-384 824,-372 824,-372 824,-366 830,-360 836,-360 836,-360 897,-360 897,-360 903,-360 909,-366 909,-372 909,-372 909,-384 909,-384 909,-390 903,-396 897,-396"/>
<text text-anchor="middle" x="866.5" y="-375.5" font-family="sans" font-size="10.00">samtools_sort</text>
</g>
<!-- 13&#45;&gt;24 -->
<g id="edge24" class="edge"><title>13&#45;&gt;24</title>
<path fill="none" stroke="grey" stroke-width="2" d="M866.5,-431.697C866.5,-423.983 866.5,-414.712 866.5,-406.112"/>
<polygon fill="grey" stroke="grey" stroke-width="2" points="870,-406.104 866.5,-396.104 863,-406.104 870,-406.104"/>
</g>
<!-- 14&#45;&gt;20 -->
<g id="edge14" class="edge"><title>14&#45;&gt;20</title>
<path fill="none" stroke="grey" stroke-width="2" d="M394.183,-362.496C424.109,-352.327 464.523,-338.594 497.661,-327.334"/>
<polygon fill="grey" stroke="grey" stroke-width="2" points="498.902,-330.608 507.245,-324.077 496.65,-323.981 498.902,-330.608"/>
</g>
<!-- 15 -->
<g id="node16" class="node"><title>15</title>
<path fill="none" stroke="#56c1d8" stroke-width="2" stroke-dasharray="5,2" d="M572.5,-252C572.5,-252 542.5,-252 542.5,-252 536.5,-252 530.5,-246 530.5,-240 530.5,-240 530.5,-228 530.5,-228 530.5,-222 536.5,-216 542.5,-216 542.5,-216 572.5,-216 572.5,-216 578.5,-216 584.5,-222 584.5,-228 584.5,-228 584.5,-240 584.5,-240 584.5,-246 578.5,-252 572.5,-252"/>
<text text-anchor="middle" x="557.5" y="-231.5" font-family="sans" font-size="10.00">varscan</text>
</g>
<!-- 15&#45;&gt;10 -->
<g id="edge4" class="edge"><title>15&#45;&gt;10</title>
<path fill="none" stroke="grey" stroke-width="2" d="M557.5,-215.697C557.5,-207.983 557.5,-198.712 557.5,-190.112"/>
<polygon fill="grey" stroke="grey" stroke-width="2" points="561,-190.104 557.5,-180.104 554,-190.104 561,-190.104"/>
</g>
<!-- 16 -->
<g id="node17" class="node"><title>16</title>
<path fill="none" stroke="#59d856" stroke-width="2" stroke-dasharray="5,2" d="M168.5,-468C168.5,-468 122.5,-468 122.5,-468 116.5,-468 110.5,-462 110.5,-456 110.5,-456 110.5,-444 110.5,-444 110.5,-438 116.5,-432 122.5,-432 122.5,-432 168.5,-432 168.5,-432 174.5,-432 180.5,-438 180.5,-444 180.5,-444 180.5,-456 180.5,-456 180.5,-462 174.5,-468 168.5,-468"/>
<text text-anchor="middle" x="145.5" y="-453" font-family="sans" font-size="10.00">bwa_map</text>
<text text-anchor="middle" x="145.5" y="-442" font-family="sans" font-size="10.00">sample: 10</text>
</g>
<!-- 16&#45;&gt;9 -->
<g id="edge3" class="edge"><title>16&#45;&gt;9</title>
<path fill="none" stroke="grey" stroke-width="2" d="M145.5,-431.697C145.5,-423.983 145.5,-414.712 145.5,-406.112"/>
<polygon fill="grey" stroke="grey" stroke-width="2" points="149,-406.104 145.5,-396.104 142,-406.104 149,-406.104"/>
</g>
<!-- 17 -->
<g id="node18" class="node"><title>17</title>
<path fill="none" stroke="#59d856" stroke-width="2" stroke-dasharray="5,2" d="M680.5,-468C680.5,-468 640.5,-468 640.5,-468 634.5,-468 628.5,-462 628.5,-456 628.5,-456 628.5,-444 628.5,-444 628.5,-438 634.5,-432 640.5,-432 640.5,-432 680.5,-432 680.5,-432 686.5,-432 692.5,-438 692.5,-444 692.5,-444 692.5,-456 692.5,-456 692.5,-462 686.5,-468 680.5,-468"/>
<text text-anchor="middle" x="660.5" y="-453" font-family="sans" font-size="10.00">bwa_map</text>
<text text-anchor="middle" x="660.5" y="-442" font-family="sans" font-size="10.00">sample: 4</text>
</g>
<!-- 21 -->
<g id="node22" class="node"><title>21</title>
<path fill="none" stroke="#d85656" stroke-width="2" stroke-dasharray="5,2" d="M691,-396C691,-396 630,-396 630,-396 624,-396 618,-390 618,-384 618,-384 618,-372 618,-372 618,-366 624,-360 630,-360 630,-360 691,-360 691,-360 697,-360 703,-366 703,-372 703,-372 703,-384 703,-384 703,-390 697,-396 691,-396"/>
<text text-anchor="middle" x="660.5" y="-375.5" font-family="sans" font-size="10.00">samtools_sort</text>
</g>
<!-- 17&#45;&gt;21 -->
<g id="edge21" class="edge"><title>17&#45;&gt;21</title>
<path fill="none" stroke="grey" stroke-width="2" d="M660.5,-431.697C660.5,-423.983 660.5,-414.712 660.5,-406.112"/>
<polygon fill="grey" stroke="grey" stroke-width="2" points="664,-406.104 660.5,-396.104 657,-406.104 664,-406.104"/>
</g>
<!-- 18&#45;&gt;20 -->
<g id="edge17" class="edge"><title>18&#45;&gt;20</title>
<path fill="none" stroke="grey" stroke-width="2" d="M479.697,-359.876C492.914,-350.893 509.292,-339.763 523.607,-330.034"/>
<polygon fill="grey" stroke="grey" stroke-width="2" points="525.903,-332.705 532.207,-324.19 521.968,-326.916 525.903,-332.705"/>
</g>
<!-- 19&#45;&gt;20 -->
<g id="edge15" class="edge"><title>19&#45;&gt;20</title>
<path fill="none" stroke="grey" stroke-width="2" d="M557.5,-359.697C557.5,-351.983 557.5,-342.712 557.5,-334.112"/>
<polygon fill="grey" stroke="grey" stroke-width="2" points="561,-334.104 557.5,-324.104 554,-334.104 561,-334.104"/>
</g>
<!-- 20&#45;&gt;15 -->
<g id="edge7" class="edge"><title>20&#45;&gt;15</title>
<path fill="none" stroke="grey" stroke-width="2" d="M557.5,-287.697C557.5,-279.983 557.5,-270.712 557.5,-262.112"/>
<polygon fill="grey" stroke="grey" stroke-width="2" points="561,-262.104 557.5,-252.104 554,-262.104 561,-262.104"/>
</g>
<!-- 21&#45;&gt;20 -->
<g id="edge20" class="edge"><title>21&#45;&gt;20</title>
<path fill="none" stroke="grey" stroke-width="2" d="M635.303,-359.876C622.086,-350.893 605.708,-339.763 591.393,-330.034"/>
<polygon fill="grey" stroke="grey" stroke-width="2" points="593.032,-326.916 582.793,-324.19 589.097,-332.705 593.032,-326.916"/>
</g>
<!-- 22&#45;&gt;20 -->
<g id="edge10" class="edge"><title>22&#45;&gt;20</title>
<path fill="none" stroke="grey" stroke-width="2" d="M720.817,-362.496C690.891,-352.327 650.477,-338.594 617.339,-327.334"/>
<polygon fill="grey" stroke="grey" stroke-width="2" points="618.35,-323.981 607.755,-324.077 616.098,-330.608 618.35,-323.981"/>
</g>
<!-- 24&#45;&gt;20 -->
<g id="edge12" class="edge"><title>24&#45;&gt;20</title>
<path fill="none" stroke="grey" stroke-width="2" d="M823.76,-362.342C820.975,-361.515 818.204,-360.726 815.5,-360 749.323,-342.241 672.224,-327.113 619.662,-317.621"/>
<polygon fill="grey" stroke="grey" stroke-width="2" points="620.275,-314.175 609.814,-315.857 619.04,-321.066 620.275,-314.175"/>
</g>
<!-- 25&#45;&gt;20 -->
<g id="edge16" class="edge"><title>25&#45;&gt;20</title>
<path fill="none" stroke="grey" stroke-width="2" d="M926.805,-362.162C924.01,-361.379 921.224,-360.649 918.5,-360 815.275,-335.421 692.572,-320.315 620.078,-312.809"/>
<polygon fill="grey" stroke="grey" stroke-width="2" points="620.059,-309.289 609.755,-311.757 619.349,-316.253 620.059,-309.289"/>
</g>
<!-- 26&#45;&gt;20 -->
<g id="edge13" class="edge"><title>26&#45;&gt;20</title>
<path fill="none" stroke="grey" stroke-width="2" d="M1029.83,-362.06C1027.03,-361.301 1024.23,-360.605 1021.5,-360 879.717,-328.631 709.217,-315.213 619.574,-309.982"/>
<polygon fill="grey" stroke="grey" stroke-width="2" points="619.759,-306.487 609.577,-309.414 619.362,-313.476 619.759,-306.487"/>
</g>
</g>
</svg>
